<?xml version="1.0" encoding="UTF-8"?>
<svg id="Camada_1" data-name="Camada 1" xmlns="http://www.w3.org/2000/svg" viewBox="0 0 482 465">
  <defs>
    <style>
      .cls-1 {
        fill: #060a0b;
      }
    </style>
  </defs>
  <g>
    <path class="cls-1" d="M86.05,207.77l.04,97.9-25.67-.09v-97.8h-12.05s-.01-23.77-.01-23.77h12.06c0-15.46-.05-28.71,10.62-38.96,8.49-8.15,20.56-16.05,34-15.11.08,9.06-.14,14.43,0,22.71-15.9-1.76-18.95,14.82-18.95,31.36h18.95c0,7.9,0,18.16,0,23.77h-18.99Z"/>
    <path class="cls-1" d="M153.81,236.99c-3.22-4.33-7.08-5.34-11.56-5.14-3.24.14-10.56.9-10.56,6.63v67.2h-18.69l-.24-91.18c5.7-1.35,13.71-2.93,19.29,3.37,12.82-5.93,27.1-6.65,35.98,5.62.38,1.32-8.79,9.79-14.22,13.52Z"/>
  </g>
  <path class="cls-1" d="M175.8,329.36c-1.52-5.85,11.91-9.15,14.48-5.44,28.67,41.38,85.81,8.35,120.95-7.19-17.34,20.41-42.29,37.88-66.75,43.73-27.37,6.54-58.29-3.69-68.68-31.09Z"/>
  <path class="cls-1" d="M374.61,286.65c.03,6.28,0,13.15,0,19.02h-51.66v-116.74l17.57,6.16-.02,91.53,34.11.03Z"/>
  <g>
    <path class="cls-1" d="M228.07,201.17c-19.42-2.99-33.95-4-49.42,7.37,8.95-16,35.58-20,49.42-7.37Z"/>
    <g>
      <path class="cls-1" d="M222.65,274.85c0,11.8-10.52,11.98-16.23,11.05-6.72-1.1-9.44-9.55-9.44-17.21,0,.09,42.39.05,42.39.05,0-11.34.05-23.44-1.28-34.58-2.21-18.52-16.01-20.87-29.25-20.9-12.46-.03-25.67,6.67-28.41,20.64-2.54,12.99-1.33,26.68-1.08,40.15.32,17.29,14.18,31.59,29.51,31.62,17.77.04,31.1-12.51,30.51-30.82h-16.72ZM206.63,230.84c5.74-1.25,10.79,0,12.94,2.61,3.27,3.98,4.28,13.98,1.3,18.21h-19.93c-4.17-6.41-3.29-18.88,5.68-20.82Z"/>
      <path class="cls-1" d="M292.94,274.85c0,11.8-10.52,11.98-16.23,11.05-6.72-1.1-9.44-9.55-9.44-17.21,0,.09,42.39.05,42.39.05,0-11.34.05-23.44-1.28-34.58-2.21-18.52-16.01-20.87-29.25-20.9-12.46-.03-25.67,6.67-28.41,20.64-2.54,12.99-1.33,26.68-1.08,40.15.32,17.29,14.18,31.59,29.51,31.62,17.77.04,31.1-12.51,30.51-30.82h-16.72ZM276.92,230.84c5.74-1.25,10.79,0,12.94,2.61,3.27,3.98,4.28,13.98,1.3,18.21h-19.93c-4.17-6.41-3.29-18.88,5.68-20.82Z"/>
      <path class="cls-1" d="M301.11,207.56c-15.47-11.27-27-8.84-45.66-6.19,13.14-12.4,36.32-9.02,45.66,6.19Z"/>
    </g>
  </g>
  <path class="cls-1" d="M444.85,239.91c-.07-16.43-15.38-26.77-30.06-26.64-15.65.13-28.76,10.88-29.63,27.7h18.3c1.32-8.43,8.39-12.35,16.04-9.63,6.19,2.2,7.68,11.2,6.47,18.92-12.1-3.82-25.26-3.43-34.07,5.59-7.96,8.14-12.01,17.46-7.67,32.2,5.42,18.38,28.14,21.31,42.31,13.42,5.36,3.8,10.39,4.21,18.6,4.21l-.29-65.76ZM424.4,282.63c-2.76,2.65-7.99,4.44-13.26,4.02-5.67-.46-11.32-3.5-11.27-10.11.04-5.52,6.74-9.85,11.3-10.3,5.33-.52,11.94,1.09,14.59,5.81,2.22,3.95,1.17,8.14-1.36,10.57Z"/>
</svg>